# xmcd CD database file
#
# Track frame offsets:
#	150
#	23997
#	48989
#	78888
#	105424
#	126657
#	151015
#	174477
#	212850
#	239782
#	270500
#
# Disc length: 3908 seconds
#
# Revision: 0
# Processed by: cddbd v1.5.2PL0 Copyright (c) Steve Scherf et al.
# Submitted via: CDex 1.70beta2
#
DISCID=900f420b
DTITLE=Kenny Burrell - Modern Jazz Modern Mainstream CD 097
DYEAR=2008
DGENRE=Jazz
TTITLE0=Your Host
TTITLE1=Cotton Tail
TTITLE2=Tom's Thumb
TTITLE3=Afternoon In Paris
TTITLE4=You Turned The Tables On Me
TTITLE5=Apothegm
TTITLE6=East Wind
TTITLE7=Kansas City Side
TTITLE8=Over The Rainbow
TTITLE9=Southern Exposure
TTITLE10=Wess Side
EXTD=YEAR: 2008
EXTT0=
EXTT1=
EXTT2=
EXTT3=
EXTT4=
EXTT5=
EXTT6=
EXTT7=
EXTT8=
EXTT9=
EXTT10=
PLAYORDER=
